<svg xmlns="http://www.w3.org/2000/svg" viewBox="0 0 1441.7 302.94"><title>Asset 1</title><g id="Layer_2" data-name="Layer 2"><g id="Layer_1-2" data-name="Layer 1"><path d="M55.43,196.17c2.4,0,5.64-1.38,9.69-4.16s8.57-5.83,13.52-9.18a139.16,139.16,0,0,1,15.78-9.19,35.81,35.81,0,0,1,16-4.16,37.61,37.61,0,0,1,19.83,5.17q8.55,5.16,8.56,12.62,0,4.89-8.56,12.49a121.31,121.31,0,0,1-21.41,14.78,161.92,161.92,0,0,1-28.62,12.34,95.87,95.87,0,0,1-29.74,5.17,73,73,0,0,1-21.19-2.87,51.44,51.44,0,0,1-16-7.75,34.62,34.62,0,0,1-9.92-11.05A26.82,26.82,0,0,1,0,197.32q0-10.33,3.83-24A199.31,199.31,0,0,1,14,145.66a268.07,268.07,0,0,1,14-27A133.09,133.09,0,0,1,43.72,96.87q3.6-4.59,11-6.6a52.9,52.9,0,0,1,13.74-2,35.61,35.61,0,0,1,19.16,5.17Q96,98.59,96,106.05a8.77,8.77,0,0,1-.45,2.59,16.16,16.16,0,0,1-2.7,4.3q-5,7.75-11.49,18.23t-12.4,22a174.39,174.39,0,0,0-9.69,22.67A63.67,63.67,0,0,0,55.43,196.17ZM91.49,75.34a36.79,36.79,0,0,1-19.38-5.16Q63.55,65,63.55,57.55a5.8,5.8,0,0,1,.22-1.43,20.27,20.27,0,0,1,1.13-2.87c.6-1.34,1.5-3.31,2.7-5.89s3-6.07,5.41-10.47a21.84,21.84,0,0,1,10.14-9.47,35.65,35.65,0,0,1,16-3.45q11.71,0,20.06,5.31t8.33,12.49a4.36,4.36,0,0,1-.22,1.29c-.16.48-.53,1.43-1.13,2.87s-1.58,3.44-2.93,6-3.08,6.08-5.18,10.48a21.81,21.81,0,0,1-10.37,9.47A37.11,37.11,0,0,1,91.49,75.34Z"/><path d="M185.22,179q11.26,0,19.38,5.17t8.11,12.63L206,219.13q-1.8,5.75-9.69,9.33a40.36,40.36,0,0,1-16.9,3.59q-13.52,0-20.51-5.46t-7-12.34l6.76-22.67q1.8-5.75,9.69-9.18A41.67,41.67,0,0,1,185.22,179Z"/><path d="M420,126.53q29.82,3.16,48.35,14.36t18.53,29.89q0,18.1-11.76,33.47a126.33,126.33,0,0,1-30,27.73A234,234,0,0,1,404,253.81a428.74,428.74,0,0,1-44.5,15.8,23.15,23.15,0,0,1-5.66,1.87,38.34,38.34,0,0,1-7.9.72,59.69,59.69,0,0,1-9.94-1.43,37.36,37.36,0,0,1-9-3.3,20.28,20.28,0,0,1-6.55-5.31,12.14,12.14,0,0,1-2.49-7.75,11.86,11.86,0,0,1,3.61-8.76,29.44,29.44,0,0,1,10.36-6.17q2.72-1.14,11.27-4t19.6-7.17q11-4.31,23.22-9.9a139.38,139.38,0,0,0,22.3-12.77A77.12,77.12,0,0,0,424.92,190a29.7,29.7,0,0,0,6.53-18.52c0-2.29-1.2-4.16-3.6-5.59a29.32,29.32,0,0,0-9-3.3A83.17,83.17,0,0,0,406.67,161q-6.76-.44-12.62-.43a154.34,154.34,0,0,0-50.48,8.61l-8.11,45.34a13.86,13.86,0,0,1-3.38,8.18,21.84,21.84,0,0,1-7.21,5.31,36.37,36.37,0,0,1-9,2.87,48.65,48.65,0,0,1-8.78.86A36.94,36.94,0,0,1,288.14,227Q280,222.26,280,215.66v-1.15L305.71,75.89q-7.66,3.73-15.32,7.89a37.17,37.17,0,0,1-18,4.17q-11.72,0-19.83-5.31t-8.11-12.49q0-5.45,7.21-11.19a94,94,0,0,1,18-10.91q10.81-5.16,23-9.61t22.09-7.61q.9-6,2.25-11.62a26.66,26.66,0,0,1,4.28-9.61,20.39,20.39,0,0,1,8.34-6.46Q335,.69,344,.7a43.21,43.21,0,0,1,18,3.67q8.11,3.66,9.46,8.75l.9,4.51q4.06-.28,9.24-.57c3.45-.19,6.54-.29,9.24-.29h3.61a143.73,143.73,0,0,1,30.42,3.74,106.27,106.27,0,0,1,25.69,9.34,60.48,60.48,0,0,1,17.8,13.79q6.76,7.9,6.76,16.8t-5.38,18.11a100.49,100.49,0,0,1-13.46,17.81,159.92,159.92,0,0,1-17.93,16.38Q428.53,120.5,420,126.53ZM353,119a209,209,0,0,0,19.57-10.76,211.18,211.18,0,0,0,21.15-14.78,155.27,155.27,0,0,0,17.55-16.08q7.42-8,8.78-14.63c0-1.91-1.06-3.59-3.15-5a24.41,24.41,0,0,0-7.43-3.3,66,66,0,0,0-9.22-1.72,76.16,76.16,0,0,0-21.61.43q-6.28,1-13,2.44Z"/><path d="M589.93,92q19.82.86,35.15,8.32a69.76,69.76,0,0,1,13.07,8,55.06,55.06,0,0,1,11.27,11.91,63,63,0,0,1,8.11,16.65,70.43,70.43,0,0,1,3.15,22,59.08,59.08,0,0,1-7,27.7,72.5,72.5,0,0,1-20.06,23.53,105.12,105.12,0,0,1-31.32,16.36A125.48,125.48,0,0,1,562,232.62q-20.28,0-33.8-5T507,214.54A46.54,46.54,0,0,1,496.18,197,58.84,58.84,0,0,1,493,178.38a71.1,71.1,0,0,1,7.44-31A92,92,0,0,1,521,119.69a108.87,108.87,0,0,1,30.65-20A93.82,93.82,0,0,1,589.93,92Zm-3.19,34.15a27.63,27.63,0,0,0-17.35,5.74,54.09,54.09,0,0,0-12.62,13.92,64.45,64.45,0,0,0-7.66,16.94,55.4,55.4,0,0,0-2.48,14.49,42.57,42.57,0,0,0,.68,6.89,21.81,21.81,0,0,0,2.93,7.75,20.07,20.07,0,0,0,6.08,6.31q3.82,2.58,10.14,2.58a32.19,32.19,0,0,0,12.4-2.72,42.2,42.2,0,0,0,12.39-8.18,48,48,0,0,0,9.92-13.35,55.31,55.31,0,0,0,5.4-18.22,10.53,10.53,0,0,0,.46-3.16V151.4a44,44,0,0,0-.91-8.75,25.49,25.49,0,0,0-3.15-8.18,17.64,17.64,0,0,0-6.08-6Q593.05,126.15,586.74,126.14Z"/><path d="M732.79,196.75q12.16,0,18.7-4.88a98,98,0,0,0,12.17-10.77,109.14,109.14,0,0,1,12-10.76q6.3-4.87,17.57-4.88,11.72,0,20.06,5.17t8.33,12.63a8,8,0,0,1-1.35,4.59,70.74,70.74,0,0,1-12.62,15.93A89.92,89.92,0,0,1,788,218a118.3,118.3,0,0,1-25.47,10.19,112.27,112.27,0,0,1-30.19,3.88q-17.13,0-28.39-4.45t-18-11.77a41.09,41.09,0,0,1-9.46-16.64,68,68,0,0,1-2.71-19.09,104.74,104.74,0,0,1,1.35-16.5,132.05,132.05,0,0,1,3.61-16.22q2.25-7.74,4.5-14.78c1.51-4.68,3-8.85,4.51-12.48q-4.5-1.16-9.24-2.73a49.48,49.48,0,0,1-8.56-3.73,25,25,0,0,1-6.31-4.88,9.3,9.3,0,0,1-2.48-6.46q0-7.45,7.89-12.91T689.07,84c2.41.2,4.66.34,6.76.44A17,17,0,0,1,702.14,86c1.81-3.63,3.53-7.31,5.19-11a46.83,46.83,0,0,1,6.08-10.18,28.19,28.19,0,0,1,9.47-7.61q5.85-3,14.87-3a37.57,37.57,0,0,1,19.38,5q8.55,5,8.56,12.48,0,5.74-4.28,13.64l-7.89,14.49c3.61.77,7.73,1.68,12.39,2.73a86.16,86.16,0,0,1,13.07,4,40.48,40.48,0,0,1,10.37,5.89,10.62,10.62,0,0,1,4.28,8.61q0,7.47-7.88,13.06t-19.61,5.59a88.37,88.37,0,0,1-13.75-2.15c-4.35-1-8.64-2.25-12.84-3.59q-1.35,3.45-3.38,8.9t-3.83,11.62q-1.8,6.18-3.16,12.78a63,63,0,0,0-1.35,12.62,37.37,37.37,0,0,0,1.13,9.47A18.57,18.57,0,0,0,732.79,196.75Z"/><path d="M857.62,179q11.26,0,19.38,5.17t8.12,12.63l-6.77,22.38q-1.8,5.75-9.68,9.33a40.44,40.44,0,0,1-16.91,3.59q-13.51,0-20.5-5.46t-7-12.34L831,191.58q1.8-5.75,9.69-9.18A41.71,41.71,0,0,1,857.62,179Z"/><path d="M1027,26.09q17.16,6.6,37.73,16.2a304.07,304.07,0,0,1,38.42,21.36A147.41,147.41,0,0,1,1133,89q12,13.62,12,28.24,0,9.18-6.33,17.92A67.83,67.83,0,0,1,1122,151.1a113.21,113.21,0,0,1-24.37,12.47,141.41,141.41,0,0,1-29.34,7.6q5.41,9.18,11.73,19.21t13.55,19.93a245.8,245.8,0,0,0,15.57,19.21,141.19,141.19,0,0,0,17.83,16.77,25.48,25.48,0,0,1,5.64,5.3,11,11,0,0,1,2,6.74q0,8.31-8.35,13.05a37.37,37.37,0,0,1-18.73,4.73,41.8,41.8,0,0,1-20.31-5.16,66.56,66.56,0,0,1-14-10.75,202.35,202.35,0,0,1-14.67-16.06q-7.45-9-14.44-19.07t-13.54-19.64q-6.54-9.6-11.74-18.06t-8.35-14.48l-7.22-.29q-3.62,11.76-7.9,23.51t-9.25,23.23a19.85,19.85,0,0,1-10.39,9.75,37.88,37.88,0,0,1-15.32,3.15,41.61,41.61,0,0,1-19.58-4.59q-8.79-4.58-8.78-12.9v-2.29a8.44,8.44,0,0,1,.45-2.58q18-43.29,26.56-83.29A565.52,565.52,0,0,0,970.3,47.31,101.86,101.86,0,0,0,958.36,44q-6.08-1.29-12.38-2.72Q935.62,39,930.9,34.41t-4.73-9.75q0-6.6,7.21-12.33t19.36-5.74a58.41,58.41,0,0,1,10.13,1q5.63,1,11.48,2.44a20.71,20.71,0,0,1,10.35-7.6,42.19,42.19,0,0,1,33.55,2.29Q1027,9.46,1027,17.78Zm-15.28,111.53q6.76.58,11.5.86c3.15.2,6.08.29,8.78.29a143,143,0,0,0,17.8-1.29,121.28,121.28,0,0,0,18.93-3.87,52.51,52.51,0,0,0,14.88-6.75q6.08-4.15,6.08-9.9,0-6.6-7.44-14.06a115.64,115.64,0,0,0-18-14.5,223.68,223.68,0,0,0-21.86-12.77q-11.26-5.73-18.48-8.61-1.8,18.09-5,35.59T1011.75,137.62Z"/><path d="M1207.79,196.17c2.4,0,5.64-1.38,9.69-4.16s8.57-5.83,13.52-9.18a139.16,139.16,0,0,1,15.78-9.19,35.81,35.81,0,0,1,16-4.16,37.64,37.64,0,0,1,19.83,5.17q8.55,5.16,8.56,12.62,0,4.89-8.56,12.49a121.69,121.69,0,0,1-21.41,14.78,162.24,162.24,0,0,1-28.62,12.34,95.93,95.93,0,0,1-29.75,5.17,73,73,0,0,1-21.18-2.87,51.39,51.39,0,0,1-16-7.75,34.59,34.59,0,0,1-9.91-11.05,26.71,26.71,0,0,1-3.38-13.06q0-10.33,3.83-24a199.31,199.31,0,0,1,10.14-27.69,266,266,0,0,1,14-27,133.67,133.67,0,0,1,15.77-21.81q3.62-4.59,11-6.6a52.84,52.84,0,0,1,13.74-2A35.61,35.61,0,0,1,1240,93.43q8.32,5.16,8.33,12.62a8.77,8.77,0,0,1-.45,2.59,16.16,16.16,0,0,1-2.7,4.3q-5,7.75-11.49,18.23t-12.4,22a173,173,0,0,0-9.69,22.67A63.67,63.67,0,0,0,1207.79,196.17Zm36.06-120.83a36.79,36.79,0,0,1-19.38-5.16q-8.57-5.18-8.57-12.63a5.43,5.43,0,0,1,.23-1.43,20.27,20.27,0,0,1,1.13-2.87c.59-1.34,1.5-3.31,2.7-5.89s3-6.07,5.41-10.47a21.84,21.84,0,0,1,10.14-9.47,35.62,35.62,0,0,1,16-3.45q11.71,0,20,5.31t8.34,12.49a4.71,4.71,0,0,1-.22,1.29c-.16.48-.53,1.43-1.13,2.87s-1.58,3.44-2.93,6-3.08,6.08-5.18,10.48a21.85,21.85,0,0,1-10.37,9.47A37.14,37.14,0,0,1,1243.85,75.34Z"/><path d="M1354.05,107.49a89.11,89.11,0,0,1,28.76-4.88q14.39,0,25.4,4.74A54.3,54.3,0,0,1,1426.63,120a52.91,52.91,0,0,1,11.24,18.51,65.64,65.64,0,0,1,3.83,22.39,76.46,76.46,0,0,1-4.94,27,75.6,75.6,0,0,1-14.36,23.82,70.45,70.45,0,0,1-23.35,17.08q-13.92,6.45-32.32,6.45a76.11,76.11,0,0,1-21.1-2.72q-9.44-2.73-18.41-6.17a63.81,63.81,0,0,0,2.71,17.5,174.82,174.82,0,0,0,6.08,17.8c2.26,5.54,4.35,10.42,6.31,14.63s2.93,7,2.93,8.33a13,13,0,0,1-2.93,8.46,21.93,21.93,0,0,1-7.21,5.74,36.52,36.52,0,0,1-9.24,3.16,47.72,47.72,0,0,1-9.46,1,45,45,0,0,1-13.3-2.16c-4.66-1.43-7.88-3.49-9.69-6.17a95.85,95.85,0,0,1-17.35-37.16,178.29,178.29,0,0,1-4.28-38,252.58,252.58,0,0,1,7-58.41,244.28,244.28,0,0,1,21.35-57,21.51,21.51,0,0,1,11-10,39.26,39.26,0,0,1,15.51-3.16,37.66,37.66,0,0,1,18.42,4.45Q1353.15,99.75,1354.05,107.49Zm-15.56,86.39a25,25,0,0,0,5.86,3.73,30.2,30.2,0,0,0,6.54,2.44,34.6,34.6,0,0,0,8.78,1q8.11,0,13.3-4.88a34.54,34.54,0,0,0,8.11-11.77,59.64,59.64,0,0,0,4.06-14.2,83.16,83.16,0,0,0,1.12-11.91,51.86,51.86,0,0,0-1.12-10.91,18.36,18.36,0,0,0-4.29-8.61,31.53,31.53,0,0,0-16.89,4.88,47.51,47.51,0,0,0-13.53,12.63,61,61,0,0,0-8.78,17.65A65.16,65.16,0,0,0,1338.49,193.88Z"/></g></g></svg>